<?xml version="1.0" encoding="UTF-8" standalone="no"?>
<svg
   width="16"
   height="15.292894"
   fill="currentColor"
   class="bi bi-chat-left-quote-fill"
   viewBox="0 0 16 15.292894"
   version="1.1"
   id="svg14041"
   sodipodi:docname="chat-left-quote-fill.svg"
   xmlns:inkscape="http://www.inkscape.org/namespaces/inkscape"
   xmlns:sodipodi="http://sodipodi.sourceforge.net/DTD/sodipodi-0.dtd"
   xmlns="http://www.w3.org/2000/svg"
   xmlns:svg="http://www.w3.org/2000/svg">
  <defs
     id="defs14045" />
  <sodipodi:namedview
     id="namedview14043"
     pagecolor="#ffffff"
     bordercolor="#000000"
     borderopacity="0.25"
     inkscape:showpageshadow="2"
     inkscape:pageopacity="0.0"
     inkscape:pagecheckerboard="0"
     inkscape:deskcolor="#d1d1d1"
     showgrid="false" />
  <path
     d="M -5.357666e-7,2 A 2,2 0 0 1 1.9999995,-1.7858887e-8 H 14 A 2,2 0 0 1 16,2 v 8 a 2,2 0 0 1 -2,2 H 4.4139995 a 1,1 0 0 0 -0.707,0.293 L 0.85399946,15.146 A 0.5,0.5 0 0 1 -5.357666e-7,14.793 Z M 7.1939995,4.766 a 1.688,1.688 0 0 0 -0.227,-0.272 1.467,1.467 0 0 0 -0.469,-0.324 l -0.008,-0.004 A 1.785,1.785 0 0 0 5.7339995,4 c -0.958,0 -1.734,0.746 -1.734,1.667 0,0.92 0.776,1.666 1.734,1.666 0.343,0 0.662,-0.095 0.931,-0.26 -0.137,0.389 -0.39,0.804 -0.81,1.22 a 0.405,0.405 0 0 0 0.011,0.59 c 0.173,0.16 0.447,0.155 0.614,-0.01 1.334,-1.329 1.37,-2.758 0.941,-3.706 a 2.461,2.461 0 0 0 -0.227,-0.4 z M 11,7.073 c -0.136,0.389 -0.39,0.804 -0.81,1.22 a 0.405,0.405 0 0 0 0.012,0.59 c 0.172,0.16 0.446,0.155 0.613,-0.01 1.334,-1.329 1.37,-2.758 0.942,-3.706 A 2.466,2.466 0 0 0 11.529,4.767 1.686,1.686 0 0 0 11.302,4.494 1.466,1.466 0 0 0 10.833,4.17 L 10.825,4.166 A 1.785,1.785 0 0 0 10.07,4 C 9.1129995,4 8.3359995,4.746 8.3359995,5.667 c 0,0.92 0.777,1.666 1.7340005,1.666 0.343,0 0.662,-0.095 0.931,-0.26 z"
     id="path14039"
     style="fill:#ffffff"
     inkscape:export-filename="about white.svg"
     inkscape:export-xdpi="96"
     inkscape:export-ydpi="96" />
</svg>
