<?xml version="1.0" encoding="UTF-8" standalone="no"?>
<svg
   width="16"
   height="14"
   fill="currentColor"
   class="bi bi-envelope-at-fill"
   viewBox="0 0 16 14"
   version="1.1"
   id="svg464"
   xmlns="http://www.w3.org/2000/svg"
   xmlns:svg="http://www.w3.org/2000/svg">
  <defs
     id="defs468" />
  <path
     d="M 2.0000003,1.0715332e-7 A 2,2 0 0 0 0.05000029,1.5550001 l 7.95000001,4.859 7.9499997,-4.859 A 2,2 0 0 0 14,1.0715332e-7 Z M 2.9284668e-7,9.8000001 v -7.102 L 5.8030003,6.2440001 2.9284668e-7,9.8010001 Z M 6.7610003,6.8300001 0.19100029,10.856 A 2,2 0 0 0 2.0000003,12 h 6.256 a 4.493,4.493 0 0 1 -0.256,-1.5 4.49,4.49 0 0 1 1.606,-3.4459999 l -0.367,-0.225 -1.239,0.757 -1.239,-0.757 z M 16,7.6710001 v -4.974 l -5.803,3.546 0.338,0.208 a 4.482,4.482 0 0 1 1.965,-0.451 c 1.414,0 2.675,0.652 3.5,1.671 z"
     id="path460"
     style="fill:#ffffff" />
  <path
     d="m 15.834,10.244 c 0,1.168 -0.577,2.025 -1.587,2.025 -0.503,0 -1.002,-0.228 -1.12,-0.648 h -0.043 c -0.118,0.416 -0.543,0.643 -1.015,0.643 -0.77,0 -1.259,-0.542 -1.259,-1.434 v -0.529 c 0,-0.8439999 0.481,-1.3999999 1.26,-1.3999999 0.585,0 0.87,0.333 0.953,0.63 h 0.03 v -0.568 h 0.905 V 11.153 c 0,0.272 0.18,0.42 0.411,0.42 0.315,0 0.639,-0.415 0.639,-1.39 v -0.118 c 0,-1.2769999 -0.95,-2.3259999 -2.484,-2.3259999 h -0.04 c -1.582,0 -2.6399997,1.067 -2.6399997,2.7239999 v 0.157 c 0,1.867 1.2369997,2.654 2.5699997,2.654 h 0.045 c 0.507,0 0.935,-0.07 1.18,-0.18 v 0.731 C 13.42,13.925 12.996,14 12.402,14 H 12.358 C 10.438,14 9.0000003,12.82 9.0000003,10.646 V 10.432 C 9.0000003,8.3600001 10.421,7.0000001 12.485,7.0000001 h 0.035 c 2.12,0 3.314,1.43 3.314,3.0339999 z m -4.04,0.21 v 0.227 c 0,0.586 0.227,0.8 0.581,0.8 0.31,0 0.564,-0.17 0.564,-0.743 v -0.367 c 0,-0.5159999 -0.275,-0.7079999 -0.572,-0.7079999 -0.346,0 -0.573,0.245 -0.573,0.7909999 z"
     id="path462"
     style="fill:#ffffff" />
</svg>
