<?xml version="1.0" encoding="UTF-8" standalone="no"?>
<svg
   width="15.999999"
   height="14"
   fill="currentColor"
   class="bi bi-envelope-at-fill"
   viewBox="0 0 15.999999 14"
   version="1.1"
   id="svg6"
   xmlns="http://www.w3.org/2000/svg"
   xmlns:svg="http://www.w3.org/2000/svg">
  <defs
     id="defs10" />
  <path
     d="M 1.9999991,-7.1435547e-8 A 2,2 0 0 0 0.04999911,1.5549999 l 7.94999999,4.859 7.9499999,-4.859 A 2,2 0 0 0 13.999999,-7.1435547e-8 Z M -8.9294434e-7,9.7999999 v -7.102 L 5.8029991,6.2439999 -8.9294434e-7,9.8009999 Z M 6.7609991,6.8299999 0.19099911,10.856 A 2,2 0 0 0 1.9999991,12 H 8.2559992 A 4.493,4.493 0 0 1 7.9999991,10.5 4.49,4.49 0 0 1 9.6059992,7.0539999 l -0.367,-0.225 -1.2390001,0.757 -1.239,-0.757 z m 9.2389999,0.841 v -4.974 l -5.803,3.546 0.338,0.208 a 4.482,4.482 0 0 1 1.965,-0.451 c 1.414,0 2.675,0.652 3.5,1.671 z"
     id="path2"
     style="fill:#ffffff" />
  <path
     d="m 15.833999,10.244 c 0,1.168 -0.577,2.025 -1.587,2.025 -0.503,0 -1.002,-0.228 -1.12,-0.648 h -0.043 c -0.118,0.416 -0.543,0.643 -1.015,0.643 -0.77,0 -1.259,-0.542 -1.259,-1.434 v -0.529 c 0,-0.8440001 0.481,-1.4000001 1.26,-1.4000001 0.585,0 0.87,0.333 0.953,0.63 h 0.03 v -0.568 h 0.905 V 11.153 c 0,0.272 0.18,0.42 0.411,0.42 0.315,0 0.639,-0.415 0.639,-1.39 v -0.118 c 0,-1.2770001 -0.95,-2.3260001 -2.484,-2.3260001 h -0.04 c -1.582,0 -2.6399998,1.067 -2.6399998,2.7240001 v 0.157 c 0,1.867 1.2369998,2.654 2.5699998,2.654 h 0.045 c 0.507,0 0.935,-0.07 1.18,-0.18 v 0.731 c -0.219,0.1 -0.643,0.175 -1.237,0.175 h -0.044 c -1.92,0 -3.3579998,-1.18 -3.3579998,-3.354 v -0.214 c 0,-2.0720001 1.4209998,-3.4320001 3.4849998,-3.4320001 h 0.035 c 2.12,0 3.314,1.43 3.314,3.0340001 z m -4.04,0.21 v 0.227 c 0,0.586 0.227,0.8 0.581,0.8 0.31,0 0.564,-0.17 0.564,-0.743 v -0.367 c 0,-0.5160001 -0.275,-0.7080001 -0.572,-0.7080001 -0.346,0 -0.573,0.245 -0.573,0.7910001 z"
     id="path4"
     style="fill:#ffffff" />
</svg>
