<?xml version="1.0" encoding="UTF-8" standalone="no"?>
<svg
   width="16.001999"
   height="16.002001"
   fill="currentColor"
   class="bi bi-facebook"
   viewBox="0 0 16.001999 16.002001"
   version="1.1"
   id="svg4"
   xmlns="http://www.w3.org/2000/svg"
   xmlns:svg="http://www.w3.org/2000/svg">
  <defs
     id="defs8" />
  <path
     d="M 16.002,8.0500006 C 16.002,3.6039996 12.42,-4.206543e-7 8.0019997,-4.206543e-7 3.5819997,9.9957935e-4 -1.1634522e-7,3.6039996 -1.1634522e-7,8.0510006 -1.1634522e-7,12.068001 2.9259997,15.398001 6.7499997,16.002001 v -5.625 h -2.03 V 8.0510006 h 2.032 v -1.775 c 0,-2.017001 1.195,-3.131001 3.022,-3.131001 0.8760003,0 1.7910003,0.157 1.7910003,0.157 v 1.980001 h -1.009 c -0.9930003,0 -1.3030003,0.621 -1.3030003,1.258 v 1.51 H 11.471 L 11.117,10.376001 H 9.2519997 v 5.625 C 13.076,15.397001 16.002,12.067001 16.002,8.0500006 Z"
     id="path2"
     style="fill:#ffffff" />
</svg>
