<?xml version="1.0" encoding="UTF-8" standalone="no"?>
<svg
   width="16.000002"
   height="16"
   fill="currentColor"
   class="bi bi-linkedin"
   viewBox="0 0 16.000002 16"
   version="1.1"
   id="svg315"
   sodipodi:docname="linkedin.svg"
   xmlns:inkscape="http://www.inkscape.org/namespaces/inkscape"
   xmlns:sodipodi="http://sodipodi.sourceforge.net/DTD/sodipodi-0.dtd"
   xmlns="http://www.w3.org/2000/svg"
   xmlns:svg="http://www.w3.org/2000/svg">
  <defs
     id="defs319" />
  <sodipodi:namedview
     id="namedview317"
     pagecolor="#ffffff"
     bordercolor="#000000"
     borderopacity="0.25"
     inkscape:showpageshadow="2"
     inkscape:pageopacity="0.0"
     inkscape:pagecheckerboard="0"
     inkscape:deskcolor="#d1d1d1"
     showgrid="false" />
  <path
     d="M 8.9294434e-7,1.1459998 C 8.9294434e-7,0.51299976 0.52600089,-2.3931885e-7 1.1750009,-2.3931885e-7 H 14.825001 c 0.649,0 1.175,0.51299999931885 1.175,1.14600003931885 V 14.854 c 0,0.633 -0.526,1.146 -1.175,1.146 H 1.1750009 C 0.52600089,16 8.9294434e-7,15.487 8.9294434e-7,14.854 Z M 4.9430009,13.394 V 6.1689998 h -2.401 V 13.394 Z m -1.2,-8.2120002 c 0.837,0 1.358,-0.554 1.358,-1.248 -0.015,-0.709 -0.52,-1.248 -1.342,-1.248 -0.822,0 -1.359,0.54 -1.359,1.248 0,0.694 0.521,1.248 1.327,1.248 z M 8.6510008,13.394 V 9.3589997 c 0,-0.216 0.016,-0.432 0.08,-0.586 0.173,-0.4309999 0.568,-0.8779999 1.232,-0.8779999 0.8690002,0 1.2160002,0.6619999 1.2160002,1.6339999 V 13.394 h 2.401 V 9.2499997 c 0,-2.2199999 -1.184,-3.2519999 -2.764,-3.2519999 -1.2740002,0 -1.8450002,0.7 -2.1650002,1.193 v 0.025 h -0.016 a 5.54,5.54 0 0 1 0.016,-0.025 v -1.022 H 6.2510009 c 0.03,0.678 0,7.2250002 0,7.2250002 z"
     id="path313"
     style="fill:#ffffff" />
</svg>
