<?xml version="1.0" encoding="UTF-8" standalone="no"?>
<svg
   width="16"
   height="16"
   fill="currentColor"
   class="bi bi-caret-right-square-fill"
   viewBox="0 0 16 16"
   version="1.1"
   id="svg13898"
   sodipodi:docname="caret-right-square-fill.svg"
   xmlns:inkscape="http://www.inkscape.org/namespaces/inkscape"
   xmlns:sodipodi="http://sodipodi.sourceforge.net/DTD/sodipodi-0.dtd"
   xmlns="http://www.w3.org/2000/svg"
   xmlns:svg="http://www.w3.org/2000/svg">
  <defs
     id="defs13902" />
  <sodipodi:namedview
     id="namedview13900"
     pagecolor="#ffffff"
     bordercolor="#000000"
     borderopacity="0.25"
     inkscape:showpageshadow="2"
     inkscape:pageopacity="0.0"
     inkscape:pagecheckerboard="0"
     inkscape:deskcolor="#d1d1d1"
     showgrid="false" />
  <path
     d="M -3.5717773e-7,2.0000004 A 2,2 0 0 1 1.9999996,4.1070557e-7 H 14 A 2,2 0 0 1 16,2.0000004 V 14 a 2,2 0 0 1 -2,2 H 1.9999996 A 2,2 0 0 1 -3.5717773e-7,14 Z M 5.4999996,12 a 0.5,0.5 0 0 0 0.832,0.374 L 10.832,8.3739999 a 0.5,0.5 0 0 0 0,-0.748 l -4.5000004,-4 a 0.5,0.5 0 0 0 -0.832,0.374 z"
     id="path13896"
     style="fill:#ffffff" />
</svg>
